<svg xmlns="http://www.w3.org/2000/svg" viewBox="0 0 270 270" width="128" height="128">
  <g fill="#F05340">
    <path d="M135,0C60.439,0,0,60.439,0,135s60.439,135,135,135s135-60.439,135-135S209.561,0,135,0z M203.672,195.328 L175.328,223.672 L135,183.344 L94.672,223.672 L66.328,195.328 L106.656,155 L66.328,114.672 L94.672,86.328 L135,126.656 L175.328,86.328 L203.672,114.672 L163.344,155 L203.672,195.328 Z"/>
    <path d="M135,54c-33.137,0-60,26.863-60,60s26.863,60,60,60s60-26.863,60-60S168.137,54,135,54z M135,159 c-24.853,0-45-20.147-45-45s20.147-45,45-45s45,20.147,45,45S159.853,159,135,159z"/>
    <polygon points="135,118 107,100 107,136 "/>
    <polygon points="163,100 135,118 135,154 163,136 "/>
    <polygon points="121,100 135,90 149,100 135,110 "/>
    <polygon points="135,164 121,154 135,144 149,154 "/>
  </g>
</svg>
