<svg xmlns="http://www.w3.org/2000/svg" viewBox="0 0 128 128" width="128" height="128">
  <style>
    .n8n-purple { fill: #6A2C70; }
    .n8n-pink { fill: #B83B5E; }
    .n8n-orange { fill: #F08A5D; }
    .n8n-yellow { fill: #F9ED69; }
  </style>
  <g transform="translate(4 4)">
    <path class="n8n-purple" d="M0,0 L40,0 L40,40 L0,40 Z"/>
    <path class="n8n-pink" d="M40,0 L80,0 L80,40 L40,40 Z" transform="translate(0,40)"/>
    <path class="n8n-orange" d="M80,0 L120,0 L120,40 L80,40 Z" transform="translate(0,80)"/>

    <path class="n8n-pink" d="M0,40 L40,40 L40,80 L0,80 Z" transform="translate(40,0)"/>
    <path class="n8n-orange" d="M40,40 L80,40 L80,80 L40,80 Z" transform="translate(40,40)"/>

    <path class="n8n-orange" d="M0,80 L40,80 L40,120 L0,120 Z" transform="translate(80,-40)"/>
    <path class="n8n-yellow" d="M40,80 L80,80 L80,120 L40,80 Z" transform="translate(80,0)"/>
  </g>
  <text x="50%" y="90%" font-family="Arial, sans-serif" font-size="20" fill="#333" text-anchor="middle" font-weight="bold">n8n</text>
</svg>
